<?xml version="1.0" standalone="no"?>
<!DOCTYPE svg PUBLIC "-//W3C//DTD SVG 20010904//EN"
 "http://www.w3.org/TR/2001/REC-SVG-20010904/DTD/svg10.dtd">
<svg version="1.0" xmlns="http://www.w3.org/2000/svg"
 width="849.000000pt" height="489.000000pt" viewBox="0 0 849.000000 489.000000"
 preserveAspectRatio="xMidYMid meet">
<metadata>
Created by potrace 1.10, written by Peter Selinger 2001-2011
</metadata>
<g transform="translate(0.000000,489.000000) scale(0.100000,-0.100000)"
fill="#11a695" stroke="none">
<path d="M2070 4032 c-6 -2 -10 -10 -10 -17 0 -15 -22 -69 -46 -117 -8 -14
-14 -34 -14 -45 0 -10 -7 -27 -15 -37 -8 -11 -15 -30 -15 -42 0 -12 -7 -27
-15 -34 -8 -7 -15 -21 -15 -30 0 -10 -8 -33 -17 -52 -9 -18 -22 -45 -30 -60
-7 -14 -13 -33 -13 -41 0 -9 -8 -30 -17 -49 -9 -18 -22 -45 -30 -60 -7 -14
-13 -35 -13 -45 0 -10 -4 -23 -8 -29 -4 -5 -18 -36 -31 -69 -12 -33 -29 -72
-37 -87 -8 -14 -14 -33 -14 -41 0 -9 -7 -29 -15 -46 -8 -17 -22 -45 -30 -62
-8 -17 -15 -37 -15 -44 0 -7 -7 -27 -15 -44 -8 -17 -22 -45 -30 -62 -8 -17
-15 -38 -15 -47 0 -9 -7 -26 -15 -36 -8 -11 -15 -28 -15 -38 0 -10 -4 -26 -10
-36 -5 -9 -15 -30 -20 -46 -9 -24 -14 -27 -38 -21 -15 4 -63 13 -107 20 -85
14 -148 34 -167 53 -7 7 -18 12 -25 12 -7 0 -50 37 -96 83 -94 95 -107 111
-107 130 0 7 -7 22 -15 33 -10 13 -14 45 -15 103 0 79 2 85 32 125 18 22 40
47 50 54 9 7 23 18 30 25 14 13 85 48 133 65 48 17 156 32 232 32 49 0 74 4
82 14 10 12 8 17 -8 25 -11 6 -31 11 -45 11 -14 0 -27 4 -30 9 -16 25 -328 19
-406 -9 -46 -17 -101 -40 -120 -51 -8 -5 -22 -12 -30 -16 -70 -31 -179 -146
-193 -204 -3 -13 -11 -44 -17 -69 -17 -67 -4 -145 44 -250 20 -46 174 -214
211 -231 11 -5 34 -18 50 -28 59 -38 106 -61 124 -61 10 0 24 -7 31 -15 7 -8
29 -15 49 -15 20 -1 47 -7 61 -15 37 -21 417 -21 486 0 27 8 67 15 89 15 22 1
51 7 65 15 14 8 41 15 60 15 19 0 46 7 60 15 14 8 36 14 51 15 32 0 49 17 49
50 0 14 7 34 15 44 8 11 15 29 15 40 0 12 7 30 15 40 8 11 15 29 15 40 0 12 7
30 15 40 8 11 15 28 15 37 0 10 6 30 14 46 8 15 22 48 31 73 9 25 23 60 31 78
8 18 14 39 14 46 0 8 7 27 15 42 8 16 15 39 15 51 0 12 5 25 10 28 12 8 13 98
1 93 -18 -7 -90 -107 -97 -135 -3 -15 -17 -52 -31 -82 -13 -30 -31 -75 -39
-100 -9 -25 -24 -64 -34 -86 -10 -22 -29 -73 -41 -114 -42 -139 -99 -180 -294
-211 -33 -5 -85 -14 -115 -20 -59 -11 -200 -3 -200 11 0 5 11 9 25 9 52 0 135
120 185 266 11 32 27 68 35 81 8 12 22 44 31 70 15 45 117 308 170 438 13 33
24 63 24 68 0 4 14 38 31 75 62 132 68 148 75 187 9 49 66 122 102 130 45 9
385 13 416 4 16 -5 40 -19 54 -31 28 -27 82 -129 82 -156 0 -11 11 -39 24 -63
13 -24 29 -62 36 -84 7 -22 23 -62 36 -89 13 -28 24 -56 24 -62 0 -7 11 -34
25 -60 14 -26 25 -53 25 -59 0 -7 11 -39 26 -71 14 -33 31 -72 38 -89 7 -16
22 -50 33 -75 10 -25 17 -53 15 -63 -4 -20 -41 -41 -89 -51 -18 -4 -56 -19
-84 -32 -29 -14 -77 -30 -108 -35 -65 -10 -78 -2 -106 64 -9 23 -26 58 -36 78
-11 20 -19 44 -19 52 0 8 -21 56 -46 107 -34 68 -56 98 -86 121 -23 16 -46 29
-52 29 -6 0 -3 -5 7 -11 9 -5 17 -18 17 -27 0 -9 7 -26 15 -36 8 -11 15 -34
15 -52 0 -18 5 -36 10 -39 6 -3 10 -16 10 -29 0 -12 7 -31 15 -42 8 -10 15
-28 15 -40 0 -11 7 -29 15 -40 8 -10 15 -27 15 -36 0 -9 7 -30 15 -47 8 -17
22 -45 30 -62 8 -17 15 -40 15 -52 0 -12 9 -37 20 -55 l20 -33 38 20 c43 22
89 42 152 66 25 9 60 23 78 31 18 8 41 14 50 14 10 0 27 7 38 15 10 8 31 15
45 15 14 0 34 7 45 15 10 8 29 15 40 15 12 0 27 7 34 15 7 8 22 15 34 15 12 0
31 7 42 15 10 8 31 15 46 15 15 0 29 4 33 9 3 5 20 12 38 16 17 4 50 12 72 20
45 15 106 31 148 40 29 6 36 29 11 39 -26 10 -78 7 -129 -8 -26 -8 -73 -18
-104 -22 -30 -4 -70 -13 -88 -20 -18 -8 -44 -14 -58 -14 -14 0 -39 -7 -55 -15
-28 -15 -28 -15 -49 28 -12 24 -21 50 -21 58 0 8 -7 24 -15 35 -8 10 -15 27
-15 36 0 9 -7 30 -15 47 -8 17 -22 45 -30 62 -8 17 -15 39 -15 49 0 9 -7 23
-15 30 -8 7 -15 22 -15 34 0 12 -7 31 -15 42 -8 10 -15 29 -15 40 0 12 -7 27
-15 34 -8 7 -15 21 -15 32 0 11 -6 32 -14 46 -13 25 -21 46 -62 155 -9 23 -22
56 -30 72 -7 17 -16 42 -20 58 -3 15 -10 30 -15 33 -5 3 -9 16 -9 28 0 13 -6
28 -13 34 -12 10 -610 23 -637 14z m-1144 -759 c-31 -103 -33 -179 -6 -255 39
-112 81 -169 200 -273 44 -38 80 -76 80 -82 0 -16 -66 -18 -75 -3 -3 6 -13 10
-21 10 -15 0 -86 43 -118 72 -11 10 -27 20 -37 23 -9 3 -22 18 -28 33 -7 15
-27 38 -46 52 -35 26 -74 98 -95 178 -12 48 -5 126 15 145 6 7 16 26 22 42 5
17 20 35 32 41 13 7 28 17 34 23 18 18 49 14 43 -6z m328 -619 c3 -9 4 -20 0
-25 -7 -12 -34 -12 -34 0 0 5 -3 16 -6 25 -4 11 0 16 14 16 11 0 23 -7 26 -16z"/>
<path d="M4164 3983 c3 -32 6 -294 7 -582 l1 -523 -198 -3 c-194 -3 -278 -13
-449 -56 -119 -30 -277 -79 -289 -91 -6 -4 -19 -8 -31 -8 -12 0 -30 -7 -41
-15 -10 -8 -31 -15 -45 -15 -15 0 -32 -7 -39 -15 -7 -8 -22 -15 -34 -15 -12 0
-31 -7 -42 -15 -10 -8 -31 -15 -45 -15 -14 0 -34 -7 -45 -15 -10 -8 -29 -15
-40 -15 -12 0 -27 -7 -34 -15 -7 -8 -25 -15 -39 -15 -15 0 -36 -7 -47 -15 -10
-8 -28 -15 -40 -15 -11 0 -29 -7 -40 -15 -10 -8 -30 -15 -44 -15 -14 0 -34 -7
-44 -15 -11 -8 -29 -15 -41 -15 -12 0 -30 -7 -41 -15 -10 -8 -30 -15 -44 -15
-14 0 -34 -7 -44 -15 -11 -8 -32 -15 -46 -15 -14 0 -35 -7 -46 -15 -10 -8 -30
-15 -44 -15 -14 0 -36 -7 -50 -15 -14 -8 -35 -14 -47 -15 -12 0 -37 -6 -55
-14 -51 -21 -251 -65 -413 -91 -115 -18 -390 -21 -449 -4 -21 6 -59 14 -85 19
-57 10 -168 53 -216 82 -128 81 -218 168 -266 256 -39 73 -53 92 -65 92 -31 0
-18 -64 34 -170 33 -68 102 -148 169 -197 76 -56 188 -123 206 -123 7 0 21 -7
31 -15 11 -8 29 -15 41 -15 12 0 30 -7 41 -15 10 -8 32 -15 47 -15 15 0 40 -6
55 -14 15 -7 59 -16 97 -19 39 -3 102 -11 140 -16 101 -15 217 -13 315 4 47 8
113 15 148 15 34 0 79 7 99 15 19 8 56 15 82 15 25 1 57 7 71 15 14 8 40 14
58 15 18 0 43 5 55 12 12 6 40 15 62 19 22 4 54 11 70 17 17 6 57 18 90 27 33
10 71 22 85 27 14 6 39 14 55 19 17 4 75 24 130 44 55 20 115 40 134 45 18 5
38 13 44 19 6 6 20 11 32 11 12 0 30 7 41 15 10 8 31 15 45 15 15 0 32 6 38
14 6 8 24 16 39 19 33 6 88 25 125 43 16 8 39 14 51 14 12 0 31 7 42 15 10 8
33 15 50 15 16 0 35 5 42 12 6 6 30 14 54 18 24 5 57 12 73 18 55 19 120 33
187 42 37 5 76 14 88 20 34 18 572 14 634 -5 27 -8 66 -15 86 -15 21 0 54 -7
73 -15 20 -8 51 -15 70 -15 18 0 42 -7 53 -15 10 -8 33 -15 49 -15 17 0 39 -7
49 -15 11 -8 31 -15 45 -15 14 0 35 -7 45 -15 11 -8 27 -15 36 -15 8 0 32 -9
53 -20 47 -25 87 -27 87 -2 0 17 -54 57 -136 102 -42 23 -71 38 -94 52 -8 4
-22 11 -30 14 -8 3 -22 10 -30 15 -20 12 -30 16 -60 23 -14 3 -33 12 -43 20
-17 13 -18 49 -17 595 0 319 3 608 7 641 l6 60 -313 0 -313 0 7 -57z m442 -29
c17 -3 43 -17 58 -30 l26 -25 -2 -577 -3 -577 -70 3 c-38 2 -87 8 -107 13 -21
5 -96 10 -167 10 -176 1 -190 13 -119 102 l23 28 3 497 c3 520 4 535 47 553
23 9 263 11 311 3z m-1019 -1240 c7 -21 -23 -22 -36 -2 -11 17 -10 19 10 16
12 -2 24 -8 26 -14z m-97 -22 c0 -11 -55 -42 -77 -42 -10 0 -27 -7 -37 -15
-11 -8 -35 -15 -54 -15 -27 0 -33 3 -28 16 3 9 6 20 6 25 0 5 15 9 34 9 18 0
49 7 67 15 37 15 89 20 89 7z m-270 -90 c0 -15 -45 -35 -89 -37 -38 -3 -47 -7
-49 -24 -4 -24 -6 -25 -32 -9 -16 10 -25 9 -51 -6 -22 -13 -34 -15 -42 -7 -8
8 -6 11 7 11 10 0 29 9 43 20 14 11 36 20 48 20 13 0 42 9 66 20 44 20 99 27
99 12z m-312 -104 c19 -19 14 -28 -13 -28 -24 0 -34 18 -18 33 9 10 17 9 31
-5z m-75 -49 c-12 -12 -109 -48 -130 -49 -7 0 -13 9 -13 19 0 15 10 21 43 26
23 4 53 13 67 20 28 15 52 3 33 -16z m-263 -68 c0 -11 -25 -21 -53 -21 -35 0
-1 22 46 29 4 0 7 -3 7 -8z m-210 -81 c0 -5 -7 -10 -15 -10 -8 0 -15 5 -15 10
0 6 7 10 15 10 8 0 15 -4 15 -10z"/>
<path d="M5247 4033 c-2 -5 0 -42 4 -83 5 -41 8 -394 7 -784 l-1 -708 34 -18
c19 -10 41 -21 49 -24 8 -3 22 -10 30 -15 8 -5 31 -16 50 -24 19 -9 80 -37
135 -63 55 -25 129 -60 165 -76 36 -16 72 -34 80 -39 8 -5 22 -12 30 -15 8 -3
26 -11 40 -17 18 -9 88 -11 245 -7 139 3 225 1 234 -5 8 -5 20 -23 28 -40 7
-16 22 -43 33 -60 11 -16 24 -39 30 -50 6 -11 20 -36 31 -55 12 -19 32 -55 46
-80 13 -25 33 -58 44 -75 10 -16 23 -39 28 -50 5 -11 21 -37 35 -58 14 -21 26
-44 26 -52 0 -8 5 -17 11 -20 5 -4 15 -17 20 -28 5 -12 18 -35 29 -52 11 -16
24 -39 30 -50 6 -11 19 -33 29 -50 11 -16 29 -47 40 -67 12 -21 30 -55 42 -75
11 -21 29 -51 39 -68 11 -16 30 -51 42 -77 l23 -48 295 0 c162 0 311 -3 330
-5 59 -9 68 7 32 53 -18 22 -32 42 -32 45 0 3 -12 25 -27 49 -48 74 -53 82
-62 105 -6 11 -15 24 -20 28 -6 3 -11 15 -11 25 0 10 -6 23 -13 27 -6 4 -22
28 -35 53 -13 25 -32 59 -42 75 -11 17 -24 39 -30 50 -6 11 -19 34 -30 50 -31
49 -48 78 -60 105 -6 13 -14 27 -18 30 -4 3 -13 16 -20 30 -7 14 -26 48 -42
75 -16 28 -34 59 -40 70 -6 11 -20 36 -31 55 -12 19 -31 53 -42 75 -12 22 -42
69 -66 104 l-44 64 24 18 c13 10 29 19 35 19 12 0 83 32 119 53 48 28 215 188
215 205 0 5 7 12 15 16 8 3 15 12 15 19 0 8 7 20 15 27 8 7 15 20 15 30 0 10
7 23 15 30 8 7 15 23 15 35 0 12 7 28 15 35 8 7 15 26 15 42 0 16 6 39 14 51
36 58 36 446 0 519 -8 15 -14 38 -14 51 0 13 -7 32 -15 43 -8 10 -15 29 -15
41 0 12 -5 25 -11 28 -5 4 -14 17 -20 28 -38 89 -153 217 -259 289 -72 49
-190 108 -218 108 -9 0 -26 7 -36 15 -11 8 -32 15 -47 15 -15 0 -40 7 -55 15
-16 8 -47 15 -70 15 -22 0 -63 7 -90 15 -41 12 -154 15 -711 15 -364 0 -664
-3 -666 -7z m1403 -122 c223 -42 398 -121 513 -230 38 -36 111 -127 133 -167
31 -55 64 -159 79 -249 19 -114 14 -329 -10 -400 -31 -93 -58 -152 -84 -185
-16 -19 -32 -46 -36 -59 -10 -31 -112 -131 -147 -143 -16 -6 -28 -14 -28 -19
0 -5 -17 -17 -38 -28 -21 -11 -64 -47 -95 -81 -49 -53 -57 -67 -57 -100 0 -40
67 -202 103 -250 10 -14 25 -38 33 -55 7 -16 18 -37 24 -45 28 -42 150 -254
150 -261 0 -4 6 -14 13 -21 15 -16 45 -64 85 -138 16 -30 48 -89 70 -130 23
-42 42 -89 42 -107 l0 -31 -62 -4 c-35 -2 -117 0 -183 4 -119 8 -120 8 -147
40 -14 18 -41 61 -58 95 -18 34 -40 69 -51 79 -10 9 -19 23 -19 31 0 8 -8 26
-19 41 -23 34 -182 305 -207 353 -85 165 -179 303 -245 363 -61 55 -69 56
-329 60 -188 2 -197 3 -241 28 -25 13 -55 28 -65 31 -11 4 -26 11 -34 16 -8 5
-40 19 -70 31 -72 28 -150 68 -167 86 -8 8 -21 14 -28 14 -26 0 -83 41 -94 68
-8 19 -11 214 -9 685 l3 659 25 20 c24 19 36 19 610 15 347 -3 607 -9 640 -16z"/>
<path d="M6105 3620 c-115 -3 -219 -9 -230 -14 -33 -15 -101 -89 -113 -123 -7
-21 -10 -159 -9 -416 l2 -385 31 -44 c17 -23 50 -56 74 -73 l42 -30 286 1
c180 0 302 5 327 12 22 6 65 17 95 25 143 36 279 155 347 304 22 47 26 74 31
184 3 78 1 134 -5 141 -5 7 -16 35 -23 63 -30 107 -124 210 -265 285 -121 65
-234 79 -590 70z m127 -109 c265 -7 320 -11 339 -25 13 -9 30 -16 38 -16 47 0
200 -113 222 -164 5 -12 13 -28 18 -36 40 -70 56 -258 26 -310 -8 -14 -14 -33
-15 -43 0 -32 -70 -125 -121 -162 -27 -19 -53 -35 -58 -35 -5 0 -14 -7 -21
-15 -7 -8 -22 -15 -34 -15 -12 0 -30 -6 -41 -14 -11 -8 -45 -17 -75 -20 -82
-9 -634 -24 -642 -17 -9 8 -11 868 -2 882 3 6 16 8 28 4 11 -3 164 -10 338
-14z"/>
<path d="M3915 2405 c-27 -8 -69 -14 -91 -15 -23 0 -61 -7 -84 -15 -23 -8 -54
-15 -68 -15 -15 0 -44 -6 -67 -14 -22 -7 -67 -21 -100 -31 -33 -9 -78 -24
-100 -32 -22 -8 -58 -22 -80 -30 -22 -8 -53 -21 -68 -29 -16 -8 -36 -14 -46
-14 -9 0 -26 -7 -37 -15 -10 -8 -29 -15 -40 -15 -12 0 -27 -7 -34 -15 -7 -8
-21 -15 -30 -15 -10 0 -32 -7 -49 -15 -17 -8 -45 -22 -62 -30 -17 -8 -38 -15
-48 -15 -9 0 -26 -7 -37 -15 -10 -8 -28 -15 -40 -15 -11 0 -29 -7 -40 -15 -10
-8 -27 -15 -37 -15 -11 0 -31 -6 -45 -14 -37 -19 -91 -37 -127 -44 -16 -2 -39
-11 -50 -18 -11 -8 -33 -14 -50 -14 -16 0 -39 -7 -49 -15 -11 -8 -34 -15 -50
-15 -17 -1 -42 -7 -56 -15 -14 -8 -40 -14 -58 -15 -18 0 -49 -7 -69 -15 -19
-8 -54 -15 -77 -15 -22 0 -66 -7 -96 -15 -82 -23 -537 -23 -599 -1 -24 9 -60
16 -80 16 -20 0 -45 6 -56 14 -11 7 -37 16 -57 20 -21 4 -38 11 -38 16 0 5
-12 13 -27 16 -16 4 -35 13 -44 21 -18 16 -49 8 -49 -13 0 -8 4 -14 9 -14 5 0
16 -6 23 -13 7 -8 27 -20 43 -28 36 -17 42 -43 22 -84 -8 -16 -22 -50 -32 -75
-9 -25 -23 -57 -31 -72 -8 -14 -14 -33 -14 -41 0 -9 -8 -30 -17 -49 -9 -18
-22 -45 -30 -60 -7 -14 -13 -33 -13 -41 0 -9 -6 -28 -14 -44 -8 -15 -22 -46
-31 -68 -10 -22 -24 -53 -31 -68 -8 -16 -14 -37 -14 -47 0 -9 -7 -23 -15 -30
-8 -7 -15 -19 -15 -28 0 -8 -7 -24 -17 -34 -9 -10 -14 -21 -10 -24 3 -3 149
-5 324 -5 235 2 319 5 325 14 4 7 8 24 8 38 0 15 7 32 15 39 8 7 15 22 15 34
0 12 7 31 15 42 8 10 15 28 15 39 0 11 7 29 15 39 8 11 15 29 15 40 0 12 7 30
15 40 8 11 15 30 15 42 0 13 4 25 9 29 5 3 12 19 16 36 4 17 13 42 21 57 8 15
14 34 14 42 0 8 8 29 19 45 l18 31 94 -8 c109 -10 462 0 498 14 14 5 55 13 91
18 36 5 85 15 110 21 94 25 246 71 275 84 63 28 113 44 119 38 3 -4 6 -16 6
-27 0 -12 7 -34 15 -50 8 -15 15 -38 15 -50 0 -11 7 -30 15 -40 8 -11 15 -30
15 -42 0 -12 7 -27 15 -34 8 -7 15 -25 15 -40 0 -15 7 -33 15 -40 8 -7 15 -22
15 -34 0 -12 7 -31 15 -42 8 -10 15 -28 15 -39 0 -11 7 -29 15 -39 8 -11 15
-30 15 -42 0 -12 7 -27 15 -34 8 -7 15 -25 15 -40 0 -15 7 -33 15 -40 8 -7 15
-25 15 -40 0 -15 7 -33 15 -40 8 -7 15 -23 15 -36 l0 -23 308 -3 c169 -2 313
-1 320 1 16 4 8 48 -14 72 -8 8 -14 21 -14 28 0 7 -6 25 -13 39 -8 15 -21 42
-30 60 -9 19 -17 41 -17 51 0 9 -7 26 -15 37 -8 10 -15 29 -15 40 0 12 -7 27
-15 34 -8 7 -15 22 -15 34 0 11 -7 30 -15 40 -8 11 -15 30 -15 42 0 12 -7 27
-15 34 -8 7 -15 21 -15 30 0 10 -7 33 -16 52 -38 75 -44 90 -44 103 0 7 -6 26
-14 42 -7 15 -20 44 -28 63 -8 19 -21 51 -30 70 -54 124 -54 120 -6 120 16 0
45 7 65 15 19 8 47 15 62 15 14 1 37 7 51 15 14 8 43 15 65 15 22 0 51 7 65
15 14 8 47 14 73 15 26 0 63 6 81 14 18 8 70 15 115 17 l83 4 -2 -505 c0 -278
-3 -529 -7 -558 l-6 -52 313 2 314 3 -2 110 c-1 61 -4 297 -7 525 -2 228 -6
426 -7 440 -3 23 0 25 44 28 26 2 62 -4 83 -12 21 -9 58 -16 84 -16 25 -1 57
-7 71 -15 14 -8 39 -14 55 -15 17 0 53 -7 80 -16 28 -9 56 -18 63 -20 12 -3
13 -88 9 -487 -3 -265 -6 -491 -8 -502 -4 -20 2 -20 306 -23 l310 -2 -2 397
c-1 219 -2 401 -3 406 0 4 -11 7 -24 7 -13 0 -29 7 -36 15 -7 8 -18 15 -25 15
-12 0 -52 18 -95 42 -8 4 -22 11 -30 14 -8 3 -22 10 -30 15 -8 5 -22 12 -30
15 -8 3 -42 19 -75 35 -33 16 -65 29 -71 29 -7 0 -17 7 -24 15 -7 8 -20 15
-30 15 -10 0 -23 7 -30 15 -7 8 -20 15 -30 15 -10 0 -23 7 -30 15 -7 8 -20 15
-30 15 -10 0 -23 6 -29 14 -6 8 -22 16 -34 19 -12 3 -47 15 -77 26 -60 24
-145 52 -230 78 -30 8 -75 22 -99 29 -25 8 -57 14 -72 14 -14 0 -46 7 -69 15
-23 8 -62 15 -86 15 -24 0 -69 7 -101 15 -78 20 -484 20 -558 0z m637 -120
c43 -7 87 -19 99 -27 l22 -14 -2 -455 c-1 -251 -6 -473 -11 -494 -5 -22 -20
-48 -37 -61 -26 -22 -38 -23 -153 -24 -137 0 -158 7 -178 57 -8 19 -12 178
-14 473 l-3 445 -32 46 c-39 55 -40 66 -10 72 33 7 231 -4 319 -18z m-1112
-140 c0 -8 -9 -29 -20 -47 -11 -18 -20 -45 -20 -60 0 -42 25 -128 58 -199 16
-35 33 -75 37 -89 8 -29 104 -273 147 -375 21 -51 29 -82 26 -115 l-3 -45
-155 0 c-197 0 -194 -1 -256 150 -24 61 -44 116 -44 123 0 7 -7 20 -15 28 -8
8 -19 34 -25 57 -6 23 -24 74 -39 112 -16 39 -31 83 -35 98 -4 15 -38 62 -76
103 -39 41 -70 79 -70 85 0 5 21 19 48 31 26 12 72 34 103 50 31 15 65 28 76
28 10 0 29 7 41 16 13 9 49 23 80 31 31 8 71 18 87 23 45 12 55 11 55 -5z
m2066 -201 c38 -19 80 -42 94 -50 14 -7 32 -14 41 -14 8 0 35 -18 60 -40 l44
-39 0 -275 c0 -251 -2 -277 -18 -293 -15 -15 -39 -18 -161 -21 l-143 -3 -26
31 -26 30 0 323 c-1 177 2 337 5 355 5 27 11 32 33 32 15 0 58 -16 97 -36z
m-4136 -205 c42 -13 61 -16 159 -28 43 -5 77 -14 82 -22 10 -15 3 -58 -17
-104 -7 -16 -24 -66 -38 -110 -14 -44 -34 -98 -46 -120 -11 -21 -20 -45 -20
-51 0 -7 -8 -26 -17 -42 -22 -38 -44 -43 -197 -49 -149 -5 -176 3 -176 56 0
20 9 54 20 76 11 22 20 49 20 61 0 12 9 33 20 47 11 14 20 37 20 51 0 14 5 26
10 26 6 0 10 9 10 20 0 12 9 38 20 60 11 22 20 46 20 55 0 18 66 85 83 85 7 0
28 -5 47 -11z"/>
</g>
</svg>
