<?xml version="1.0" standalone="no"?>
<!DOCTYPE svg PUBLIC "-//W3C//DTD SVG 20010904//EN"
 "http://www.w3.org/TR/2001/REC-SVG-20010904/DTD/svg10.dtd">
<svg version="1.0" xmlns="http://www.w3.org/2000/svg"
 width="275.000000pt" height="261.000000pt" viewBox="0 0 275.000000 261.000000"
 preserveAspectRatio="xMidYMid meet">
<metadata>
Created by potrace 1.10, written by Peter Selinger 2001-2011
</metadata>
<g transform="translate(0.000000,261.000000) scale(0.100000,-0.100000)"
fill="#126ec4" stroke="none">
<path d="M1112 2238 c-50 -106 -139 -294 -197 -418 -59 -124 -146 -308 -195
-410 -48 -102 -187 -396 -310 -655 -122 -259 -242 -512 -266 -563 l-43 -92
264 0 265 0 723 471 c397 260 830 542 961 628 l240 156 -246 3 -245 2 -28 63
c-39 86 -346 769 -404 897 l-48 105 -190 3 -190 2 -91 -192z m344 -470 l59
-143 165 -3 164 -3 -121 -122 -121 -122 44 -150 c24 -82 44 -152 44 -154 0 -8
-37 13 -151 84 -66 42 -125 75 -129 73 -5 -2 -102 -109 -216 -238 -114 -129
-251 -285 -306 -347 -54 -62 -103 -115 -108 -118 -5 -3 14 45 44 107 166 350
254 534 303 632 l55 110 -113 107 -114 106 45 6 c25 4 100 12 166 18 l122 12
48 144 c27 78 52 143 55 143 3 0 33 -64 65 -142z"/>
<path d="M1943 827 c-150 -100 -273 -184 -273 -187 0 -3 50 -4 110 -2 l111 3
47 -103 c27 -57 82 -178 123 -270 l74 -168 258 0 c141 0 257 1 257 3 0 2 -90
194 -201 428 -110 233 -205 436 -211 452 -5 15 -13 27 -16 26 -4 0 -130 -82
-279 -182z"/>
</g>
</svg>
