 <svg  version="1.0" xmlns="http://www.w3.org/2000/svg"  width="230.000000pt" height="138.000000pt" viewBox="0 0 230.000000 138.000000"  preserveAspectRatio="xMidYMid meet">  <g transform="translate(0.000000,138.000000) scale(0.100000,-0.100000)" fill="#d81b0e" stroke="none"> <path d="M0 690 l0 -690 1150 0 1150 0 0 690 0 690 -1150 0 -1150 0 0 -690z m2009 366 c28 -29 23 -69 -10 -87 -49 -26 -103 25 -78 74 24 44 55 49 88 13z m-1139 -113 c172 -70 170 -315 -2 -387 -53 -23 -150 -21 -197 3 -125 64 -159 224 -69 327 68 77 167 98 268 57z m473 7 c52 -16 73 -29 100 -61 84 -97 65 -239 -41 -314 -41 -28 -50 -30 -130 -30 -78 0 -91 3 -127 27 -22 15 -51 44 -65 65 -21 31 -25 48 -25 113 0 67 3 82 28 117 36 52 115 96 183 102 7 1 41 -8 77 -19z m-1025 -167 l2 -173 105 0 105 0 0 -35 0 -36 -147 3 -148 3 -3 195 c-1 107 0 200 3 208 3 9 18 12 42 10 l38 -3 3 -172z m1288 169 c5 -4 30 -35 53 -69 24 -35 47 -63 51 -63 4 0 24 25 46 57 53 77 60 83 101 83 43 0 43 -2 -36 -112 -34 -47 -61 -88 -61 -92 0 -3 32 -49 70 -102 39 -53 70 -101 70 -105 0 -5 -18 -9 -39 -9 -38 0 -42 3 -92 75 -29 42 -57 74 -63 72 -5 -2 -32 -36 -59 -75 -49 -71 -51 -72 -94 -72 -32 0 -42 3 -37 12 5 7 39 55 76 106 37 52 65 99 61 106 -3 6 -33 48 -65 93 -32 44 -58 86 -58 92 0 12 59 15 76 3z"/> <path d="M698 874 c-35 -18 -68 -82 -68 -128 0 -44 34 -102 71 -121 15 -8 51 -15 78 -15 42 0 56 5 86 31 58 51 67 123 23 196 -30 51 -130 70 -190 37z"/> <path d="M1192 870 c-81 -51 -81 -190 0 -240 46 -28 115 -27 159 3 48 32 60 62 56 130 -3 49 -8 63 -35 89 -26 27 -40 32 -89 35 -46 3 -65 0 -91 -17z"/> </g> </svg> 