<?xml version="1.0" standalone="no"?>
<!DOCTYPE svg PUBLIC "-//W3C//DTD SVG 20010904//EN"
 "http://www.w3.org/TR/2001/REC-SVG-20010904/DTD/svg10.dtd">
<svg version="1.0" xmlns="http://www.w3.org/2000/svg"
 width="208.000000pt" height="122.000000pt" viewBox="0 0 208.000000 122.000000"
 preserveAspectRatio="xMidYMid meet">
<metadata>
Created by potrace 1.10, written by Peter Selinger 2001-2011
</metadata>
<g transform="translate(0.000000,122.000000) scale(0.100000,-0.100000)"
fill="#38b715" stroke="none">
<path d="M0 610 l0 -610 1040 0 1040 0 0 610 0 610 -1040 0 -1040 0 0 -610z
m1010 185 c0 -33 2 -35 35 -35 34 0 35 -1 35 -40 0 -39 -1 -40 -35 -40 l-35 0
0 -69 c0 -74 12 -91 51 -70 19 10 20 7 17 -38 l-3 -48 -53 -3 c-47 -3 -56 0
-82 27 -28 28 -30 34 -30 111 0 73 -2 82 -20 87 -16 4 -20 14 -20 44 0 32 3
39 20 39 16 0 20 7 20 35 l0 35 50 0 50 0 0 -35z m-236 -53 c70 -41 95 -143
53 -216 -29 -51 -77 -76 -145 -76 -85 0 -141 40 -161 115 -20 79 26 168 102
193 42 14 112 7 151 -16z m592 9 c112 -51 126 -209 24 -279 -36 -24 -116 -30
-151 -12 -18 10 -19 7 -19 -55 l0 -66 -47 3 -48 3 -3 208 -2 207 45 0 c35 0
45 -4 45 -17 0 -15 2 -15 18 -1 34 31 83 34 138 9z m345 8 c108 -36 151 -168
82 -250 -36 -42 -74 -59 -133 -59 -95 0 -158 50 -167 135 -10 82 28 143 104
170 47 17 71 18 114 4z m-1397 -79 c16 -44 31 -80 35 -80 4 0 20 36 36 80 l30
80 52 0 52 0 -85 -207 c-46 -113 -84 -208 -84 -210 0 -6 -87 -3 -93 3 -3 4 5
34 17 68 l24 63 -59 139 c-32 76 -59 140 -59 142 0 1 24 2 53 2 l54 0 27 -80z
m1617 -140 c22 -12 26 -59 7 -78 -17 -17 -64 -15 -82 4 -20 19 -20 34 0 62 16
24 44 28 75 12z"/>
<path d="M640 660 c-38 -38 -19 -118 28 -121 33 -3 47 2 65 23 24 28 21 70 -6
96 -29 27 -61 28 -87 2z"/>
<path d="M1245 655 c-30 -29 -32 -64 -7 -96 39 -48 122 -16 122 48 0 29 -42
73 -70 73 -11 0 -32 -11 -45 -25z"/>
<path d="M1616 659 c-33 -26 -36 -77 -6 -104 24 -22 77 -22 99 -1 24 24 19 85
-8 107 -30 24 -52 24 -85 -2z"/>
</g>
</svg>
